<?xml version="1.0" encoding="UTF-8"?> <svg xmlns="http://www.w3.org/2000/svg" height="512pt" viewBox="0 -29 512 512" width="512pt"><path d="m0 327.078125h512v-84.0625h-512zm15-69.0625h482v54.0625h-482zm0 0"></path><path d="m335.011719 396.484375-6.722657-57.773437-14.898437 1.734374 6.519531 56.039063h-128.246094l6.523438-56.039063-14.898438-1.734374-6.722656 57.773437h-24.339844l-20.367187 20.367187v37.425782h247.859375v-37.425782l-20.367188-20.367187zm29.707031 42.792969h-217.859375v-16.210938l11.578125-11.582031h194.699219l11.582031 11.582031zm0 0"></path><path d="m0 0v230.515625h15v-215.515625h482v215.515625h15v-230.515625zm0 0"></path><path d="m53.328125 263.136719c-12.082031 0-21.90625 9.828125-21.90625 21.910156s9.828125 21.90625 21.90625 21.90625c12.082031 0 21.910156-9.824219 21.910156-21.90625s-9.828125-21.910156-21.910156-21.910156zm0 28.816406c-3.808594 0-6.90625-3.097656-6.90625-6.90625 0-3.8125 3.097656-6.910156 6.90625-6.910156s6.910156 3.097656 6.910156 6.910156c0 3.808594-3.101562 6.90625-6.910156 6.90625zm0 0"></path><path d="m146.152344 73.515625v7.070313l-20.550782-20.554688-93.347656 93.347656h31.425782v62.828125h123.839843v-62.828125h31.425781l-33.949218-33.949218v-45.914063zm26.367187 64.863281v62.824219h-93.839843v-62.824219h-10.210938l57.128906-57.132812 35.554688 35.550781v-28.28125h8.84375v37.125l12.734375 12.738281zm0 0"></path><path d="m277.601562 188.703125v-113.824219h-50.816406v113.824219h15v-98.824219h20.816406v98.824219zm0 0"></path><path d="m340.113281 188.703125v-83.457031h-50.8125v83.457031h15v-68.457031h20.8125v68.457031zm0 0"></path><path d="m402.625 188.703125v-47.398437h-50.8125v47.398437h15v-32.398437h20.8125v32.398437zm0 0"></path><path d="m465.140625 188.703125v-100.730469h-50.816406v100.730469h15v-85.730469h20.816406v85.730469zm0 0"></path><path d="m118.101562 140.980469h15v46.742187h-15zm0 0"></path><path d="m118.101562 115.980469h15v15h-15zm0 0"></path><path d="m211.667969 201.203125h269.328125v15h-269.328125zm0 0"></path><path d="m486.496094 302.078125h-91.34375v-15h91.34375zm-101.34375 0h-15v-15h15zm-25 0h-15v-15h15zm0 0"></path><path d="m480.996094 42.285156h-107.980469v-15h107.980469zm-117.980469 0h-15v-15h15zm-25 0h-15v-15h15zm0 0"></path></svg> 