<?xml version="1.0" encoding="UTF-8"?> <svg xmlns="http://www.w3.org/2000/svg" id="outline" height="512" viewBox="0 0 512 512" width="512"><path d="m169.37207 161.37256-81.94141 81.94189a31.79246 31.79246 0 0 0 -9.37207 22.62647v198.05908a32.03635 32.03635 0 0 0 32 32h209.94141a32.03635 32.03635 0 0 0 32-32v-144h24a7.9992 7.9992 0 0 0 7.76074-6.05957l6.48535-25.94043h1.75391a8.00041 8.00041 0 0 0 7.84473-6.43115l15.61816-78.09046 5.79688-7.246a122.47423 122.47423 0 0 0 26.74023-76.23239 104 104 0 0 0 -208 0 121.79741 121.79741 0 0 0 4.31787 32h-52.31787a31.79122 31.79122 0 0 0 -22.62793 9.37256zm200.38184 142.62744h-51.50782l-4-16h59.50782zm15.6875-32h-82.88282l-12.7998-64h108.48242zm-41.44141-240a88.09957 88.09957 0 0 1 88 88 106.41177 106.41177 0 0 1 -23.23438 66.23682l-4.61083 5.76318h-120.30958l-4.61083-5.7627a106.41411 106.41411 0 0 1 -23.23438-66.2373 88.09957 88.09957 0 0 1 88-88zm-77.25977 164.23291 3.01368 3.76709h-21.75391v16h27.0415l3.2002 16h-14.2417v16h17.44141l6.71386 33.56885a8.00041 8.00041 0 0 0 7.84473 6.43115h1.75391l4 16h-77.75391v16h112v144a16.01833 16.01833 0 0 1 -16 16h-209.94141a16.01833 16.01833 0 0 1 -16-16v-198.05908a15.89523 15.89523 0 0 1 4.68653-11.31348l75.31347-75.31344v52.686a16.01833 16.01833 0 0 1 -16 16h-30.05859v16h30.05859a32.03635 32.03635 0 0 0 32-32v-63.87061a16.20483 16.20483 0 0 1 1.94141-.12939h57.89062a121.823 121.823 0 0 0 16.84961 28.23291z"></path><path d="m120 304h16v16h-16z"></path><path d="m160 304h48v16h-48z"></path><path d="m120 344h16v16h-16z"></path><path d="m160 344h88v16h-88z"></path><path d="m264 344h48v16h-48z"></path><path d="m120 384h16v16h-16z"></path><path d="m160 384h24v16h-24z"></path><path d="m200 384h112v16h-112z"></path><path d="m232 440h40v16h-40z"></path><path d="m288 440h24v16h-24z"></path><path d="m216 200h16v16h-16z"></path><path d="m216 232h32v16h-32z"></path></svg> 