<?xml version="1.0" encoding="UTF-8"?> <svg xmlns="http://www.w3.org/2000/svg" id="Layer_5" height="512" viewBox="0 0 64 64" width="512"><g><path d="m60 36.264v-13.395c1.106-.283 2.05-1.024 2.578-2.08.986-1.973.184-4.38-1.772-5.358l-26.456-13.853c-1.443-.757-3.256-.757-4.699 0l-26.44 13.844c-1.973.987-2.775 3.395-1.789 5.367.528 1.056 1.472 1.797 2.578 2.08v16.594c-.309.53-.572 1.093-.772 1.692l-2.074 6.223c-.102.305-.154.624-.154.947v1.675c0 1.654 1.346 3 3 3h4.026c.914 1.207 2.348 2 3.974 2s3.061-.793 3.974-2h5.076c.508 5.598 5.222 10 10.95 10s10.442-4.402 10.949-10h5.076c.914 1.207 2.348 2 3.974 2s3.061-.793 3.974-2h4.027c1.654 0 3-1.346 3-3v-8c0-2.373-1.189-4.47-3-5.736zm1 5.736v5h-5.026c-.914-1.207-2.348-2-3.974-2s-3.061.793-3.974 2h-6.24c-1.825-3.556-5.521-6-9.786-6s-7.961 2.444-9.786 6h-6.24c-.914-1.207-2.348-2-3.974-2s-3.061.793-3.974 2h-4.639l1.738-5.213c.955-2.864 3.624-4.787 6.641-4.787h2.852l4.065-8.13c1.193-2.387 3.592-3.87 6.261-3.87h21.279c3.436 0 6.34 2.46 6.905 5.849l1.025 6.151h1.847c2.757 0 5 2.243 5 5zm-24-19h-10v-1c0-1.654 1.346-3 3-3h4c1.654 0 3 1.346 3 3zm19 12h-.153l-.747-4.48c-.727-4.357-4.46-7.52-8.877-7.52h-7.223v-1c0-2.757-2.243-5-5-5h-4c-2.757 0-5 2.243-5 5v1h-.056c-3.431 0-6.516 1.906-8.05 4.975l-3.512 7.025h-1.616c-2.163 0-4.186.77-5.766 2.089v-14.226c.274-.071.545-.163.803-.292l25.197-13.09 25.211 13.097c.25.125.517.215.789.285v12.432c-.634-.19-1.305-.295-2-.295zm-52.789-15.105c-.493-.986-.092-2.19.911-2.692l26.456-13.853c.874-.457 1.97-.457 2.844 0l26.473 13.861c.986.493 1.388 1.697.895 2.684-.342.681-1.028 1.105-1.791 1.105-.309 0-.618-.073-.88-.204l-26.119-13.568-26.105 13.561c-.96.48-2.206.063-2.684-.894zm.789 31.105c-.551 0-1-.449-1-1v-1h4.101c-.066.323-.101.658-.101 1s.035.677.101 1zm8 2c-1.654 0-3-1.346-3-3s1.346-3 3-3 3 1.346 3 3-1.346 3-3 3zm4.899-4h4.528c-.183.645-.313 1.313-.376 2h-4.152c.066-.323.101-.658.101-1s-.035-.677-.101-1zm15.101 12c-4.962 0-9-4.038-9-9s4.038-9 9-9 9 4.038 9 9-4.038 9-9 9zm10.949-10c-.062-.688-.192-1.355-.376-2h4.528c-.066.323-.101.658-.101 1s.035.677.101 1zm9.051 2c-1.654 0-3-1.346-3-3s1.346-3 3-3 3 1.346 3 3-1.346 3-3 3zm8-2h-3.101c.066-.323.101-.658.101-1s-.035-.677-.101-1h4.101v1c0 .551-.449 1-1 1z"></path><path d="m46 27h-21.362c-2.003 0-3.807 1.189-4.596 3.03l-2.042 4.765v2.205h33v-5c0-2.757-2.243-5-5-5zm-24.12 3.818c.474-1.104 1.556-1.818 2.758-1.818h9.362v6h-13.912zm27.12 4.182h-13v-6h10c1.654 0 3 1.346 3 3z"></path><path d="m33 49c.551 0 1 .449 1 1h2c0-1.654-1.346-3-3-3v-2h-2v2h-3v3c0 1.654 1.346 3 3 3h2c.551 0 1 .449 1 1v1h-3c-.551 0-1-.449-1-1h-2c0 1.654 1.346 3 3 3v2h2v-2h3v-3c0-1.654-1.346-3-3-3h-2c-.551 0-1-.449-1-1v-1z"></path></g></svg> 