<?xml version="1.0" encoding="UTF-8"?> <!-- Generator: Adobe Illustrator 19.0.0, SVG Export Plug-In . SVG Version: 6.00 Build 0) --> <svg xmlns="http://www.w3.org/2000/svg" xmlns:xlink="http://www.w3.org/1999/xlink" version="1.1" id="Capa_1" x="0px" y="0px" viewBox="0 0 512.888 512.888" style="enable-background:new 0 0 512.888 512.888;" xml:space="preserve"> <g> <g> <path d="M142.163,400.648c-0.032-13.232-10.824-23.976-24.056-23.944l-32,0.072c-4.408,0.008-8.008-3.568-8.016-7.984l-0.04-16 c-0.008-4.408,3.568-8.008,7.984-8.016l16-0.04l32-0.072c4.416-0.008,7.992-3.6,7.984-8.016c-0.008-4.416-3.6-7.992-8.016-7.984 l-24,0.056l-0.016-8c-0.008-4.416-3.6-7.992-8.016-7.984s-7.992,3.6-7.984,8.016l0.016,8l-8,0.016 c-13.232,0.032-23.976,10.824-23.944,24.056l0.04,16c0.032,13.232,10.824,23.976,24.056,23.944l32-0.072 c4.408-0.008,8.008,3.568,8.016,7.984l0.04,16c0.008,4.408-3.568,8.008-7.984,8.016l-16,0.04l-32,0.072 c-4.416,0.008-7.992,3.6-7.984,8.016c0.008,4.416,3.6,7.992,8.016,7.984l24-0.056l0.016,8c0.008,4.416,3.6,7.992,8.016,7.984 s7.992-3.6,7.984-8.016l-0.016-8l8-0.016c13.232-0.032,23.976-10.824,23.944-24.056L142.163,400.648z"></path> </g> </g> <g> <g> <path d="M262.043,352.36c-30.872,0.08-55.936,25.256-55.864,56.136c0.072,30.88,25.256,55.936,56.136,55.864 c30.872-0.072,55.944-25.256,55.864-56.136C318.099,377.344,292.923,352.288,262.043,352.36z M262.283,448.368 c-22.056,0.056-40.04-17.848-40.096-39.904c-0.056-22.056,17.848-40.048,39.904-40.096c22.056-0.056,40.04,17.848,40.096,39.904 C302.243,430.328,284.339,448.312,262.283,448.368z"></path> </g> </g> <g> <g> <path d="M398.251,440.048l-0.152-64c-0.008-2.12-0.856-4.152-2.36-5.648l-13.688-13.624l-0.032-12.688 c-0.008-4.416-3.6-7.992-8.016-7.984l-72,0.168c-4.424,0.008-7.992,3.6-7.984,8.016c0.024,4.416,3.608,7.992,8.032,7.984l64-0.152 l0.016,8c0.008,2.12,0.856,4.152,2.36,5.648l13.688,13.624l0.136,57.376l-13.624,13.688c-1.496,1.504-2.336,3.544-2.328,5.664 l0.016,8l-64,0.152c-4.424,0.008-7.992,3.6-7.984,8.016c0.008,4.416,3.6,7.992,8.016,7.984l72-0.168 c4.424-0.008,7.992-3.6,7.984-8.016l-0.032-12.688l13.624-13.688C397.419,444.208,398.259,442.168,398.251,440.048z"></path> </g> </g> <g> <g> <path d="M421.659,191.992c-0.008-2.76-1.432-5.32-3.776-6.776l-64.096-39.848c-2.6-1.608-5.896-1.6-8.488,0.024l-63.904,40.152 c-2.336,1.472-3.752,4.04-3.744,6.792l0.04,16c0.008,4.416,3.6,7.992,8.016,7.984c4.424-0.008,7.992-3.6,7.984-8.016 l-0.024-11.568l55.928-35.144l56.08,34.864l0.024,11.568c0.008,4.416,3.6,7.992,8.016,7.984c4.424-0.008,7.992-3.6,7.984-8.016 L421.659,191.992z"></path> </g> </g> <g> <g> <path d="M405.747,224.032c-0.008-4.424-3.6-8-8.016-7.992c-4.424,0.008-7.992,3.6-7.984,8.016l0.112,48l-16,0.04l-0.096-40 c-0.024-8.824-7.216-15.984-16.04-15.96l-16,0.04c-8.824,0.024-15.984,7.216-15.96,16.04l0.096,40l-16,0.04l-0.112-48 c-0.008-4.416-3.6-7.992-8.016-7.984c-4.416,0.008-7.992,3.6-7.984,8.016l0.136,56c0.008,4.416,3.6,7.992,8.016,7.984l32-0.08 c4.424-0.008,7.992-3.6,7.984-8.016l-0.112-48l16-0.04l0.112,48c0.008,4.416,3.6,7.992,8.016,7.984l32-0.072 c4.424-0.008,7.992-3.6,7.984-8.016L405.747,224.032z"></path> </g> </g> <g> <g> <path d="M357.651,184.136l-16,0.04c-4.424,0.008-7.992,3.6-7.984,8.016c0.008,4.416,3.6,7.992,8.016,7.984l16-0.04 c4.424-0.008,7.992-3.6,7.984-8.016C365.659,187.704,362.067,184.128,357.651,184.136z"></path> </g> </g> <g> <g> <path d="M509.371,63.776c-0.032-13.232-10.824-23.976-24.056-23.944l-48,0.112l-0.04-16C437.243,10.712,426.451-0.032,413.219,0 l-128,0.304c-13.232,0.032-23.976,10.824-23.944,24.056l0.04,16l-48,0.112c-13.232,0.032-23.976,10.824-23.944,24.056l0.568,240 l-8,0.016c-0.192,0-0.352,0.096-0.544,0.112l-1.632-12.992c-1.976-15.768-13.072-28.328-27.528-32.976l13.088-39.568 c0.808-2.44,0.392-5.12-1.12-7.208c-1.512-2.088-3.928-3.312-6.496-3.312l-112,0.264c-2.568,0.008-4.984,1.248-6.48,3.336 c-1.496,2.088-1.904,4.768-1.088,7.208l13.28,39.528c-14.432,4.72-25.464,17.328-27.368,33.112L2.803,468.096 c-1.368,11.368,2.208,22.8,9.816,31.36c7.608,8.56,18.536,13.456,29.992,13.432l115.816-0.272l40-0.096l288-0.68 c13.232-0.032,23.976-10.824,23.944-24.056L509.371,63.776z M285.251,16.312l128-0.304c4.416-0.008,8.008,3.568,8.016,7.984 l0.056,24l0.072,32l-144,0.344l-0.136-56C277.259,19.92,280.843,16.32,285.251,16.312z M146.651,224.64l-10.592,32.024 l-34.232,0.08l-34.232,0.08l-10.744-31.976L146.651,224.64z M180.171,488.48c-4.536,5.16-11.088,8.128-17.952,8.144l-3.824,0.008 l-115.824,0.256c-6.872,0.016-13.432-2.92-17.992-8.056c-4.568-5.136-6.712-11.992-5.888-18.816l21.248-176.048 c1.448-12.016,11.664-21.096,23.768-21.12l38.16-0.088l38.16-0.088c12.104-0.032,22.36,9,23.864,21.008l22.08,175.952 C186.827,476.448,184.715,483.32,180.171,488.48z M194.155,496.528c3.568-4.776,6.032-10.248,7.2-16.016l21-0.048 c4.416-0.008,7.992-3.6,7.984-8.016c-0.008-4.416-3.6-7.992-8.016-7.984l-20.856,0.048l-14.064-111.968l34.648-0.08 c4.416-0.008,7.992-3.6,7.984-8.016c-0.008-4.416-3.6-7.992-8.016-7.984l-36.616,0.088l-2.008-15.992l222.576-0.536 c4.416-0.008,8.008,3.568,8.016,7.984l0.288,120l0.112,48L194.155,496.528z M429.995,327.968 c-0.032-13.232-10.824-23.976-24.056-23.944l-160,0.376l-0.416-175.992l208-0.496l0.736,312l-24,0.056L429.995,327.968z M486.387,495.832l-56,0.136l-0.096-40l32-0.072c4.424-0.008,7.992-3.6,7.984-8.016l-0.776-328 c-0.008-4.416-3.6-7.992-8.016-7.984l-224,0.528c-4.416,0.008-7.992,3.6-7.984,8.016l0.44,184l-24,0.056l-0.568-240 c-0.008-4.408,3.568-8.008,7.984-8.016l48-0.112l0.072,32c0.008,4.416,3.6,7.992,8.016,7.984l160-0.376 c4.424-0.008,7.992-3.6,7.984-8.016l-0.072-32l48-0.112c4.416-0.008,8.008,3.568,8.016,7.984l1.008,424 C494.379,492.224,490.803,495.824,486.387,495.832z"></path> </g> </g> <g> <g> <path d="M365.315,40.12l-32,0.08c-4.424,0.008-7.992,3.6-7.984,8.016c0.008,4.416,3.6,7.992,8.016,7.984l32-0.08 c4.424-0.008,7.992-3.6,7.984-8.016C373.323,43.688,369.731,40.112,365.315,40.12z"></path> </g> </g> <g> <g> <path d="M146.611,170.408l-40.072-31.92c-2.928-2.328-7.08-2.32-9.992,0.024l-39.928,32.096c-3.448,2.768-3.992,7.8-1.224,11.248 c2.768,3.44,7.808,3.992,11.248,1.224L101.579,155l35.072,27.92c1.472,1.176,3.24,1.744,5,1.744 c2.344-0.008,4.672-1.04,6.24-3.016C150.643,178.192,150.075,173.16,146.611,170.408z"></path> </g> </g> <g> <g> <path d="M146.347,58.4l-40.072-31.904c-2.928-2.328-7.072-2.32-9.992,0.024l-39.92,32.096c-3.456,2.752-4,7.792-1.232,11.232 c2.768,3.448,7.816,4,11.248,1.224l34.936-28.08l35.072,27.92c1.472,1.176,3.24,1.744,5,1.744c2.344-0.008,4.672-1.04,6.24-3.016 C150.379,66.184,149.811,61.152,146.347,58.4z"></path> </g> </g> <g> <g> <path d="M146.483,114.408l-40.08-31.92c-2.928-2.328-7.072-2.32-9.992,0.024l-39.92,32.096c-3.448,2.768-3.992,7.8-1.224,11.248 c2.768,3.448,7.808,3.992,11.248,1.224L101.451,99l35.072,27.92c1.472,1.176,3.24,1.744,5,1.744 c2.344-0.008,4.672-1.04,6.24-3.016C150.515,122.192,149.947,117.16,146.483,114.408z"></path> </g> </g> <g> </g> <g> </g> <g> </g> <g> </g> <g> </g> <g> </g> <g> </g> <g> </g> <g> </g> <g> </g> <g> </g> <g> </g> <g> </g> <g> </g> <g> </g> </svg> 