<svg width="36" height="24" viewBox="0 0 36 24" fill="none" xmlns="http://www.w3.org/2000/svg">
<path d="M35.0451 23.3628H0.615815C0.276289 23.3628 0.000976562 23.0875 0.000976562 22.748V0.614838C0.000976562 0.275312 0.276289 0 0.615815 0H35.0452C35.3847 0 35.66 0.275312 35.66 0.614838V22.748C35.6599 23.0875 35.3846 23.3628 35.0451 23.3628Z" fill="#4A67AD"/>
<path d="M35.6599 0.614838C35.6599 0.275312 35.3846 0 35.0451 0H32.2944L20.9044 7.46241V0H14.7563V7.46241L3.36643 0H0.615815C0.276289 0 0.000976562 0.275312 0.000976562 0.614838V2.20494L9.773 8.60732H0.000976562V14.7554H9.773L0.000976562 21.1579V22.748C0.000976562 23.0875 0.276289 23.3628 0.615815 23.3628H3.3665L14.7565 15.9004V23.3628H20.9046V15.9004L32.2946 23.3628H35.0452C35.3848 23.3628 35.6601 23.0875 35.6601 22.748V21.1579L25.8881 14.7555H35.6599V8.60739H25.8879L35.6599 2.20494V0.614838Z" fill="#F5F5F5"/>
<path d="M35.6599 9.837H19.6749V0H15.986V9.837H0.000976562V13.5258H15.986V23.3628H19.6749V13.5258H35.6599V9.837Z" fill="#FF4B55"/>
<path d="M12.4633 14.7554L0.0175781 22.8341C0.0611071 23.131 0.305914 23.3628 0.614935 23.3628H1.46177L14.7217 14.7554H12.4633V14.7554Z" fill="#FF4B55"/>
<path d="M24.1247 14.7554H21.8662L35.1069 23.35C35.4155 23.3171 35.6591 23.0652 35.6591 22.7479V22.2424L24.1247 14.7554Z" fill="#FF4B55"/>
<path d="M0 1.2951L11.2673 8.60895H13.5258L0.358192 0.0615234C0.147859 0.159237 0 0.369221 0 0.616396V1.2951Z" fill="#FF4B55"/>
<path d="M23.1618 8.60732L35.6374 0.509046C35.5856 0.221963 35.346 0 35.0439 0H34.1631L20.9033 8.60732H23.1618Z" fill="#FF4B55"/>
</svg>
