<svg width="36" height="24" viewBox="0 0 36 24" fill="none" xmlns="http://www.w3.org/2000/svg">
<path d="M0.614839 23.3975H35.0442C35.3837 23.3975 35.659 23.1222 35.659 22.7826V0.649506C35.659 0.30998 35.3837 0.034668 35.0442 0.034668H0.614839C0.275312 0.0347376 0 0.30998 0 0.649506V22.7826C0 23.1222 0.275312 23.3975 0.614839 23.3975Z" fill="#C8414B"/>
<path d="M35.659 4.95337H0V18.4794H35.659V4.95337Z" fill="#FFD250"/>
<path d="M15.0619 11.7162L15.5832 9.37041C15.6312 9.15436 15.4668 8.94946 15.2455 8.94946H14.8783C14.657 8.94946 14.4927 9.15436 14.5406 9.37041L15.0619 11.7162Z" fill="#C8414B"/>
<path d="M15.6769 10.4861H14.4473V15.7117H15.6769V10.4861Z" fill="#F5F5F5"/>
<path d="M15.9853 11.7163H12.9111V12.3311H15.9853V11.7163Z" fill="#C8414B"/>
<path d="M15.986 14.1754L14.1416 13.5606V12.9458L15.986 13.5606V14.1754Z" fill="#C8414B"/>
<path d="M5.84118 11.7162L6.36248 9.37041C6.41054 9.15436 6.2461 8.94946 6.02477 8.94946H5.65759C5.43632 8.94946 5.27196 9.15436 5.31987 9.37041L5.84118 11.7162Z" fill="#C8414B"/>
<path d="M7.99277 9.87158C7.65324 9.87158 7.37793 10.1469 7.37793 10.4864V14.4827C7.37793 15.2296 8.07509 16.6345 10.452 16.6345C12.8289 16.6345 13.526 15.2297 13.526 14.4827V10.4864C13.526 10.1469 13.2507 9.87158 12.9112 9.87158H7.99277Z" fill="#F5F5F5"/>
<path d="M10.452 12.9456H7.37793V10.4864C7.37793 10.1469 7.65324 9.87158 7.99277 9.87158H10.452V12.9456Z" fill="#C8414B"/>
<path d="M10.4512 12.9458H13.5252V14.4828C13.5252 15.3317 12.8371 16.0199 11.9882 16.0199C11.1393 16.0199 10.4512 15.3317 10.4512 14.4828V12.9458Z" fill="#C8414B"/>
<path d="M7.37793 12.9458H10.452V14.4828C10.452 15.3317 9.76388 16.0199 8.91496 16.0199C8.06604 16.0199 7.37793 15.3317 7.37793 14.4828V12.9458Z" fill="#FAB446"/>
<path d="M9.83652 15.7055V12.9458H9.22168V15.9889C9.4504 15.9425 9.65704 15.8412 9.83652 15.7055Z" fill="#C8414B"/>
<path d="M8.60703 15.9889V12.9458H7.99219V15.7055C8.17174 15.8412 8.37838 15.9425 8.60703 15.9889Z" fill="#C8414B"/>
<path d="M9.83663 11.7163H7.99219V12.3311H9.83663V11.7163Z" fill="#FFB441"/>
<path d="M9.83663 10.4861H7.99219V11.1009H9.83663V10.4861Z" fill="#FAB446"/>
<path d="M9.52941 10.8525H8.2998V11.9663H9.52941V10.8525Z" fill="#FAB446"/>
<path d="M6.45519 10.4861H5.22559V15.7117H6.45519V10.4861Z" fill="#F5F5F5"/>
<path d="M6.76339 15.4053H4.91895V16.0201H6.76339V15.4053Z" fill="#FAB446"/>
<path d="M6.76534 9.87183H4.9209V10.4867H6.76534V9.87183Z" fill="#FAB446"/>
<path d="M7.07054 16.0195H4.61133V16.6344H7.07054V16.0195Z" fill="#4A67AD"/>
<path d="M16.2917 15.4053H14.4473V16.0201H16.2917V15.4053Z" fill="#FAB446"/>
<path d="M16.2922 16.0195H13.833V16.6344H16.2922V16.0195Z" fill="#4A67AD"/>
<path d="M12.2973 9.25684H8.6084V9.87167H12.2973V9.25684Z" fill="#FAB446"/>
<path d="M9.83625 8.33437C9.32769 8.33437 8.91406 7.92067 8.91406 7.41218C8.91406 6.90362 9.32776 6.48999 9.83625 6.48999C10.3448 6.48999 10.7584 6.90369 10.7584 7.41218C10.7585 7.92067 10.3448 8.33437 9.83625 8.33437ZM9.83625 7.10476C9.66666 7.10476 9.52883 7.24252 9.52883 7.41218C9.52883 7.58177 9.66659 7.7196 9.83625 7.7196C10.0059 7.7196 10.1437 7.58184 10.1437 7.41218C10.1437 7.24259 10.0059 7.10476 9.83625 7.10476Z" fill="#F5F5F5"/>
<path d="M11.0657 8.33437C10.5572 8.33437 10.1436 7.92067 10.1436 7.41218C10.1436 6.90362 10.5573 6.48999 11.0657 6.48999C11.5743 6.48999 11.9879 6.90369 11.9879 7.41218C11.9879 7.92067 11.5742 8.33437 11.0657 8.33437ZM11.0657 7.10476C10.8962 7.10476 10.7583 7.24252 10.7583 7.41218C10.7583 7.58177 10.8961 7.7196 11.0657 7.7196C11.2353 7.7196 11.3732 7.58184 11.3732 7.41218C11.3731 7.24259 11.2353 7.10476 11.0657 7.10476Z" fill="#F5F5F5"/>
<path d="M12.2952 8.94911C11.7867 8.94911 11.373 8.53541 11.373 8.02692C11.373 7.51837 11.7867 7.10474 12.2952 7.10474C12.8038 7.10474 13.2174 7.51844 13.2174 8.02692C13.2174 8.53541 12.8037 8.94911 12.2952 8.94911ZM12.2952 7.7195C12.1256 7.7195 11.9878 7.85727 11.9878 8.02692C11.9878 8.19651 12.1256 8.33434 12.2952 8.33434C12.4648 8.33434 12.6027 8.19658 12.6027 8.02692C12.6027 7.85727 12.4648 7.7195 12.2952 7.7195Z" fill="#F5F5F5"/>
<path d="M8.60676 8.94911C8.0982 8.94911 7.68457 8.53541 7.68457 8.02692C7.68457 7.51837 8.09827 7.10474 8.60676 7.10474C9.11532 7.10474 9.52895 7.51844 9.52895 8.02692C9.52902 8.53541 9.11532 8.94911 8.60676 8.94911ZM8.60676 7.7195C8.43717 7.7195 8.29934 7.85727 8.29934 8.02692C8.29934 8.19651 8.4371 8.33434 8.60676 8.33434C8.77642 8.33434 8.91418 8.19651 8.91418 8.02686C8.91418 7.85727 8.77642 7.7195 8.60676 7.7195Z" fill="#F5F5F5"/>
<path d="M12.2971 14.1753V14.4827C12.2971 14.6523 12.1592 14.7902 11.9896 14.7902C11.8201 14.7902 11.6822 14.6523 11.6822 14.4827V14.1753H12.2971ZM12.9118 13.5605H11.0674V14.4827C11.0674 14.9913 11.4811 15.4049 11.9896 15.4049C12.4981 15.4049 12.9118 14.9912 12.9118 14.4827V13.5605H12.9118Z" fill="#FAB446"/>
<path d="M11.9889 12.3308C11.6493 12.3308 11.374 12.0555 11.374 11.716V11.1012C11.374 10.7616 11.6493 10.4863 11.9889 10.4863C12.3284 10.4863 12.6037 10.7616 12.6037 11.1012V11.716C12.6037 12.0555 12.3284 12.3308 11.9889 12.3308Z" fill="#FFA0D2"/>
<path d="M10.4515 13.8676C10.9608 13.8676 11.3737 13.4547 11.3737 12.9454C11.3737 12.4361 10.9608 12.0232 10.4515 12.0232C9.94218 12.0232 9.5293 12.4361 9.5293 12.9454C9.5293 13.4547 9.94218 13.8676 10.4515 13.8676Z" fill="#4A67AD"/>
<path d="M8.60703 9.2568L7.99219 8.64196L8.35233 8.28182C8.90901 7.72514 9.66412 7.41235 10.4515 7.41235C11.2388 7.41235 11.9939 7.72514 12.5506 8.28182L12.9108 8.64196L12.2959 9.2568H8.60703Z" fill="#C8414B"/>
<path d="M10.452 8.94955C10.6217 8.94955 10.7594 8.81192 10.7594 8.64214C10.7594 8.47235 10.6217 8.33472 10.452 8.33472C10.2822 8.33472 10.1445 8.47235 10.1445 8.64214C10.1445 8.81192 10.2822 8.94955 10.452 8.94955Z" fill="#FFD250"/>
<path d="M9.22246 8.9498C9.39224 8.9498 9.52988 8.81216 9.52988 8.64238C9.52988 8.4726 9.39224 8.33496 9.22246 8.33496C9.05268 8.33496 8.91504 8.4726 8.91504 8.64238C8.91504 8.81216 9.05268 8.9498 9.22246 8.9498Z" fill="#FFD250"/>
<path d="M11.6824 8.94955C11.8522 8.94955 11.9898 8.81192 11.9898 8.64214C11.9898 8.47235 11.8522 8.33472 11.6824 8.33472C11.5126 8.33472 11.375 8.47235 11.375 8.64214C11.375 8.81192 11.5126 8.94955 11.6824 8.94955Z" fill="#FFD250"/>
<path d="M7.99509 11.7163H4.9209V12.3311H7.99509V11.7163Z" fill="#C8414B"/>
<path d="M4.91895 14.1754L6.76332 13.5606V12.9458L4.91895 13.5606V14.1754Z" fill="#C8414B"/>
<path d="M15.9851 9.87183H14.1406V10.4867H15.9851V9.87183Z" fill="#FAB446"/>
<path d="M10.7594 7.4126H10.1445V9.25704H10.7594V7.4126Z" fill="#FFB441"/>
<path d="M10.7594 6.18262H10.1445V8.02706H10.7594V6.18262Z" fill="#FAB446"/>
</svg>
