<svg width="36" height="24" viewBox="0 0 36 24" fill="none" xmlns="http://www.w3.org/2000/svg">
<path d="M35.0441 23.5323H0.614839C0.275312 23.5323 0 23.2569 0 22.9174V0.784272C0 0.444746 0.275312 0.169434 0.614839 0.169434H35.0442C35.3837 0.169434 35.659 0.444746 35.659 0.784272V22.9174C35.659 23.257 35.3837 23.5323 35.0441 23.5323Z" fill="#FF4B55"/>
<path d="M35.659 8.77773H15.985V0.17041H9.83693V8.77773H0V14.9258H9.83693V23.5332H15.985V14.9258H35.659V8.77773Z" fill="#F5F5F5"/>
<path d="M35.659 10.0073H14.7554V0.17041H11.0666V10.0073H0V13.6962H11.0666V23.5332H14.7554V13.6962H35.659V10.0073Z" fill="#4A67AD"/>
</svg>
